<?xml version="1.0" encoding="utf-8"?>
<!-- Generator: Adobe Illustrator 27.5.0, SVG Export Plug-In . SVG Version: 6.00 Build 0)  -->
<svg version="1.1" id="Layer_1" xmlns="http://www.w3.org/2000/svg" xmlns:xlink="http://www.w3.org/1999/xlink" x="0px" y="0px"
	 viewBox="0 0 200 200" style="enable-background:new 0 0 200 200;" xml:space="preserve">
<style type="text/css">
	.st0{clip-path:url(#SVGID_00000083811515865719679410000014894658776764992185_);fill:#BE1E2D;}
	.st1{clip-path:url(#SVGID_00000083811515865719679410000014894658776764992185_);fill:#FFFFFF;}
	.st2{clip-path:url(#SVGID_00000083811515865719679410000014894658776764992185_);fill:none;stroke:#FFFFFF;stroke-width:1.4;}
</style>
<g>
	<defs>
		<rect id="SVGID_1_" x="9.4" y="27.8" width="181.7" height="143.3"/>
	</defs>
	<clipPath id="SVGID_00000071533667204533900870000006906225797859588542_">
		<use xlink:href="#SVGID_1_"  style="overflow:visible;"/>
	</clipPath>
	<path style="clip-path:url(#SVGID_00000071533667204533900870000006906225797859588542_);fill:#BE1E2D;" d="M100.5,72.4
		c30-16.2,60.2-31.1,90.5-44.5c-17.5,33.1-36.2,65.6-55.8,97.3c-10-20.8-22.3-39.4-36.6-55.5c29.9-13,59.8-25.9,89.7-38.9"/>
	<path style="clip-path:url(#SVGID_00000071533667204533900870000006906225797859588542_);fill:#BE1E2D;" d="M118.5,84.4
		c-24.2,17.3-48.1,33.1-71.5,47.2c-11.6,7-23.3,13.7-32.7,16.6c4.3-0.8,8.6-1.7,12.9-2.5c1.8-0.4,3.8-0.7,4.5,0.2
		c1.4,1.7-1.8,7.1-5.9,11.7c-4.1,4.6-9,8.5-13.7,12.1c35.2-19.7,72.1-43.3,109.5-70.1"/>
	<path style="clip-path:url(#SVGID_00000071533667204533900870000006906225797859588542_);fill:#BE1E2D;" d="M118.6,83
		c-14.6,10.2-29.1,19.9-43.4,29c-7.2,4.6-14.3,9-21.4,13.2c-6.7,4-13.4,8-19.8,11.5c-7.1,3.8-13.9,7-19.8,8.7
		c-0.8,0.2-2.1,1.3-2.7,2.3c-0.7,1.1-0.4,1.5,0.4,1.4c2.7-0.5,5.4-0.9,8.1-1.4c1.4-0.2,2.7-0.5,4.1-0.7c1.2-0.2,2.5-0.5,3.6-0.4
		c1.7,0.1,2.1,1.4,0.9,3.9c-1.1,2.3-3.2,5.1-5.6,7.5c-3.6,3.7-7.5,6.8-11.3,9.7c-1,0.7-1.8,1.7-2.1,2.5c-0.2,0.7,0.2,1.1,1.1,0.6
		c14-7.6,28.3-15.8,42.7-24.6c14.4-8.7,28.9-18,43.6-27.9c8.2-5.5,16.5-11.2,24.8-17.1c2.5-1.7,3-4.6,0.5-2.8
		c-14.6,10.3-29.2,20.1-43.6,29.4c-14.4,9.3-28.7,18.1-42.9,26.3c-7.9,4.6-15.8,9-23.6,13.3c-0.3,1-0.7,2.1-1,3.1
		c7.3-5.5,15.9-12.5,20.1-20.1c1.8-3.2,2.5-5.8,1.4-7c-1.3-1.4-5.1-0.3-7.9,0.2c-3.5,0.6-7,1.2-10.4,1.8c-0.8,1.2-1.6,2.5-2.3,3.7
		c11-3.1,24.6-11,37.9-19c14.4-8.6,28.9-17.7,43.6-27.5c8.2-5.5,16.5-11.1,24.8-16.9C120.6,84,121.1,81.2,118.6,83"/>
	<path style="clip-path:url(#SVGID_00000071533667204533900870000006906225797859588542_);fill:#FFFFFF;" d="M42,104.4
		c5.4,2.3,6.6,9.3,6.3,14.4c-0.3,7-2.6,13.8-6.2,19.8c-2,3.4-4.6,6.5-7.5,9.2c-0.7,0.6-0.1,1.5,0.7,1.6c6.8,0.7,13.7,1.5,20.5,2.2
		c0.5,0,0.9-0.4,0.9-0.8c0.1-0.5-0.2-0.9-0.7-1c-1.4-0.4-2.3-1.8-2.6-3.2c-0.4-1.9,0.2-3.9,0.9-5.7c1.3-3.3,3.2-6.4,5.6-9.1
		c1.3-1.5,2.8-2.9,4.4-4.2c-0.5-0.1-1-0.1-1.5-0.2c3.4,5.8,2.7,13.3-1.1,18.7c-1,1.5-2.3,2.8-3.8,3.8c-0.7,0.5-0.5,1.8,0.5,1.7
		c5.8-0.1,11.6-0.8,17.2-2.4c0.8-0.2,0.9-1.7,0-1.8c-2.3-0.4-3.5-2.6-4.1-4.7c-0.7-2.5-0.7-5.2-0.5-7.8c0.4-5.4,2.4-10.6,5.6-14.9
		c1.8-2.4,3.9-4.6,6.4-6.3c0.6-0.5,0.6-1.5-0.2-1.7c-4.8-1.3-9.7-2.4-14.6-3.1c-0.7-0.1-1.4,0.4-1.2,1.2c0.9,3.6,0.9,7.3-0.2,10.8
		c0.5-0.2,0.9-0.4,1.4-0.6c-4.5-2.1-10.3-0.4-12.9,3.9c0.6,0.2,1.2,0.3,1.7,0.5c-0.2-3.4-0.4-6.9-1.1-10.3c-0.3-1.7-0.9-3.3-1.4-4.8
		c-0.5-1.5-1.1-3-1-4.6c0-1.3,0.5-2.7,1.6-3.5c0.3-0.2,0.5-0.6,0.4-1.1c-0.1-0.4-0.5-0.7-0.9-0.7c-1.4,0.1-2.8,0.2-4.1,0.4
		c-0.5,0-0.9,0.4-0.9,0.9c0,0.5,0.4,1,0.9,0.9c1.4-0.1,2.8-0.2,4.1-0.4c-0.2-0.6-0.3-1.2-0.5-1.7c-2.7,1.9-2.8,5.5-2,8.4
		c0.5,1.7,1.2,3.4,1.7,5.1c0.4,1.7,0.7,3.4,0.9,5.2c0.2,2,0.3,4.1,0.5,6.1c0.1,0.9,1.3,1.3,1.7,0.5c2-3.4,6.7-4.9,10.3-3.3
		c0.6,0.3,1.2,0.1,1.4-0.6c1.2-3.8,1.2-7.9,0.2-11.8c-0.4,0.4-0.8,0.8-1.2,1.2c4.9,0.7,9.8,1.8,14.6,3.1c-0.1-0.6-0.1-1.1-0.2-1.7
		c-4.8,3.4-8.5,8.2-10.7,13.7c-1.1,2.7-1.8,5.5-2.1,8.4c-0.3,2.8-0.3,5.8,0.4,8.5c0.7,2.8,2.4,6,5.5,6.5v-1.8
		c-5.4,1.5-11.1,2.2-16.7,2.3c0.2,0.6,0.3,1.2,0.5,1.7c6.1-4.2,9-12.1,7.7-19.3c-0.4-2-1.1-4-2.1-5.7c-0.3-0.6-1-0.6-1.5-0.2
		c-3.1,2.4-5.8,5.5-7.9,8.8c-1.1,1.7-2,3.6-2.7,5.5c-0.8,2-1.3,4.3-0.8,6.5c0.5,2.1,1.9,3.9,4,4.6c0.1-0.6,0.2-1.2,0.2-1.8
		c-6.8-0.7-13.7-1.5-20.5-2.2c0.2,0.5,0.4,1.1,0.7,1.6c5.5-5.1,9.6-11.6,12-18.7c1.2-3.5,1.9-7.2,2.2-10.9c0.2-3.1,0-6.4-1.1-9.4
		c-1.1-3.3-3.3-6.2-6.6-7.6c-0.5-0.2-1,0.2-1.2,0.7C41.2,103.8,41.5,104.2,42,104.4"/>
	<path style="clip-path:url(#SVGID_00000071533667204533900870000006906225797859588542_);fill:#FFFFFF;" d="M115.2,137
		c0.9,0.4,1.7,0.9,2.5,1.7c0.3,0.3,0.4,0.5,0.6,0.9c0.1,0.2,0.1,0.1,0.2,0.4c0.1,0.2,0.1,0.4,0.2,0.6c0.1,0.2,0-0.1,0,0.1
		c0,0.1,0,0.2,0,0.3c0,0.2,0.1,0.4,0.1,0.6c0,0.1,0,0.2,0,0.3c0-0.2,0,0.1,0,0.2c0,0.2,0,0.4,0,0.6c-0.1,0.9-0.2,1.6-0.4,2.3
		c-0.7,3.2-2.1,7.9,0.3,10.8c0.7,0.8,1.6,1.5,2.5,2c0.9,0.5,1.8,0.8,2.8,0.9c-0.1-0.6-0.3-1.2-0.4-1.8c-1.9,0.8-3.9,1.3-5.9,1.7
		c-1.1,0.2-2.1,0.4-3.2,0.6c-0.5,0.1-1,0.2-1.4,0.2c-0.5,0.1-0.9,0-1.2,0.6c-0.2,0.4,0.1,1,0.4,1.2c0.4,0.2,0.7,0,0.9-0.5
		c0.5-1.2,0.9-2.6,1.2-3.9c0.6-2.5,1.1-5.2,0.9-7.9c-0.1-1.4-0.5-2.8-1.2-4c-0.2-0.4-0.7-0.5-1-0.2c-1.6,1.7-2.9,3.8-3.8,6.2
		c-0.5,1.1-0.8,2.3-1.1,3.6c-0.3,1.4-0.4,3,0.1,4.4c0.5,1.4,1.5,2.3,2.7,2.6c0-0.6,0-1.2-0.1-1.9c-3.9,0.1-7.8,0.1-11.7,0.2
		c0.2,0.6,0.4,1.1,0.6,1.7c2.2-2.9,4-6.4,4.9-10.4c0.5-1.9,0.7-3.9,0.8-5.9c0.1-1.9,0-3.8-0.4-5.7c-0.4-1.8-1-3.5-2-4.9
		c-0.5-0.8-1.1-1.4-1.8-1.9c-0.3-0.2-0.6-0.4-1-0.5c-0.2-0.1-0.6-0.2-0.7-0.5c-0.2-0.3-0.2-0.8-0.2-1.2c0-0.4,0-0.9,0-1.3
		c0.1-0.9,0.3-1.8,0.7-2.6c0.9-1.8,2.3-2.8,3.9-3.5c3.7-1.7,7.8-1.8,11.8-0.5c0.4,0.1,0.7-0.3,0.8-0.8c0-0.5-0.3-0.9-0.6-1.1
		c-3.6-1.3-7.4-1.2-10.9-0.1c-1.7,0.6-3.4,1.4-4.7,2.8c-1.2,1.3-2.1,3.3-2.2,5.4c-0.1,1,0,2,0.2,3c0.3,1.1,0.9,1.5,1.7,1.9
		c1.3,0.6,2.4,1.9,3,3.4c1.4,3.3,1.3,7.4,0.7,10.8c-0.7,4.5-2.5,8.5-4.9,11.7c-0.5,0.6-0.2,1.7,0.6,1.7c3.9-0.1,7.8-0.1,11.7-0.2
		c0.8,0,0.7-1.7-0.1-1.9c-1-0.2-1.6-1.2-1.8-2.5c-0.1-1.4,0.3-2.9,0.7-4.2c0.9-2.6,2.2-4.9,3.9-6.8c-0.3-0.1-0.7-0.1-1-0.2
		c0.1,0.1,0.1,0.2,0.2,0.3c0,0,0.2,0.3,0.1,0.2c0.1,0.3,0.2,0.5,0.3,0.8c0,0.1,0.1,0.4,0.1,0.3c0,0,0.1,0.2,0.1,0.3
		c0.1,0.3,0.1,0.6,0.1,0.9c0.1,1.1,0,2.3-0.1,3.5c-0.3,2.1-0.8,4.2-1.5,6.3c-0.1,0.4-0.3,0.9-0.4,1.3c0.4,0.3,0.9,0.5,1.3,0.8
		c0,0,0,0,0,0c-0.2,0.2-0.4,0.4-0.6,0.5c2-0.3,3.9-0.6,5.8-1c1.9-0.4,3.9-0.9,5.7-1.7c0.3-0.1,0.5-0.7,0.4-1.1
		c-0.1-0.5-0.4-0.7-0.8-0.7c0.1,0-0.1,0-0.1,0c-0.1,0-0.2,0-0.3,0c-0.2,0-0.4-0.1-0.6-0.2c-0.4-0.1-0.7-0.3-1.1-0.5
		c-0.7-0.4-1.5-0.9-2.1-1.6c-0.2-0.2-0.2-0.2-0.3-0.4c0-0.1-0.1-0.2-0.1-0.2c0,0,0-0.1-0.1-0.1c0,0.1,0,0,0,0
		c-0.1-0.4-0.2-0.6-0.2-1.1c-0.1-0.9-0.1-1.6,0-2.5c0.2-1.7,0.6-3.3,1-5c0.3-1.7,0.5-3.4,0.1-5.2c-0.7-2.4-2.6-3.7-4.3-4.6
		c-0.4-0.2-0.8,0-0.9,0.5C114.6,136.2,114.8,136.9,115.2,137"/>
	<path style="clip-path:url(#SVGID_00000071533667204533900870000006906225797859588542_);fill:#FFFFFF;" d="M115.9,122.7
		c2.1,0.9,3.7,3.2,4.5,5.9c0.2,0.6,0.3,1.3,0.4,1.9c0,0.3,0.1,0.6,0,0.9c-0.1,0.3-0.4,0.5-0.7,0.7c-1.1,0.9-2.3,1.4-3.6,1.7
		c-0.4,0.1-0.7,0.2-1.1,0.2c-0.4,0.1-0.7,0.2-1,0.6c-0.3,0.5-0.2,1.1,0.1,1.5c0.3,0.5,0.8,0.5,1.2,0.2c0.3-0.2,0.3-0.9,0.1-1.3
		c-0.3-0.4-0.7-0.5-1-0.2c0,0,0,0-0.1,0c0.1-0.1,0.2-0.1,0.3-0.2c0,0,0,0-0.1,0c0.1,0,0.2,0.1,0.4,0.1c0,0,0,0,0,0
		c0.1,0.1,0.2,0.3,0.2,0.4c0,0.1,0,0.2,0,0.2c0,0.1-0.1,0.3-0.1,0.4c-0.1,0.2-0.1,0.1-0.1,0.1c0,0,0.2,0,0.2,0
		c0.2,0,0.3-0.1,0.5-0.1c0.3-0.1,0.7-0.1,1-0.2c0.6-0.2,1.3-0.4,1.9-0.7c0.6-0.3,1.2-0.7,1.8-1.1c0.5-0.4,1.1-1,1.3-1.7
		c0.2-0.8,0.1-1.7-0.1-2.5c-0.1-0.7-0.3-1.4-0.6-2.1c-0.5-1.3-1.1-2.6-1.9-3.7c-0.9-1.3-2.1-2.3-3.3-2.8c-0.4-0.2-0.8,0-0.9,0.5
		C115.3,121.9,115.5,122.5,115.9,122.7"/>
	<path style="clip-path:url(#SVGID_00000071533667204533900870000006906225797859588542_);fill:#FFFFFF;" d="M105.4,128.6
		c0.3-0.2,0.8,0,1,0.2c0.4,0.4,0.6,1.1,0.7,1.8c0.2,1.8,0.2,3.6,0,5.4c-0.1,1,1.1,1.5,1.4,0.5c0.6-2.2,2.6-2.8,4.3-3.1
		c1.8-0.3,4.5-0.1,5.1-2.9c0.5-2.6-1.7-4.8-3.3-5.8c-1.7-1.2-3.6-1.6-5.4-1.4c-2.1,0.3-4.1,1.7-5.4,3.7c-0.6,0.9,0.6,2.1,1.2,1.2
		c2-3.1,5.7-4,8.7-2.2c0.7,0.4,1.4,1,1.9,1.7c0.5,0.5,1.2,1.5,0.8,2.3c-0.4,0.9-1.3,1.1-2,1.2c-1,0.1-1.9,0.2-2.9,0.4
		c-1.8,0.4-3.8,1.5-4.4,4c0.5,0.2,0.9,0.4,1.4,0.5c0.1-1.2,0.1-2.3,0.1-3.5c0-1.2-0.1-2.3-0.4-3.5c-0.6-2.1-2.4-3.3-3.8-2.2
		c-0.3,0.2-0.3,0.9-0.1,1.3C104.7,128.8,105.1,128.8,105.4,128.6"/>
	<path style="clip-path:url(#SVGID_00000071533667204533900870000006906225797859588542_);fill:#FFFFFF;" d="M132,110.7
		c0.5,2.1,1.1,4.2,1.6,6.3c0.3,1,0.5,2,0.8,3c0.3,1,0.6,1.9,0.8,2.9c0,0.1,0.1,0.3,0,0.4c0,0,0.1,0-0.1,0c-0.4,0.1-0.8,0.1-1.2,0.2
		c-1,0.2-2,0.3-2.9,0.5c-1.9,0.3-3.9,0.6-5.8,0.9c-1,0.1-1.9,0.3-2.9,0.4c-0.9,0.1-1.8,0.4-2.2,1.4c-0.3,0.8,0,1.6,0.3,2.3
		c0.4,1,0.7,1.9,1.1,2.9c1.5,4,2.8,8,4,12c1.4,4.5,2.6,9.1,3.7,13.7c0.1,0.4,0.5,0.8,0.9,0.8c6,0,11.9-0.5,17.8-1.5
		c0.7-0.1,0.8-0.9,0.6-1.5c-1.2-2.9-2.1-5.9-2.8-8.9c-0.1-0.5-0.7-0.9-1.2-0.7c-2.9,0.9-5.8,1.5-8.8,1.8c0.3,0.3,0.6,0.5,0.9,0.8
		c-0.6-1.8-1-3.7-1.1-5.6c-0.3,0.3-0.6,0.6-0.9,1c4,0.1,8-0.6,11.7-2.1c0.5-0.2,0.8-0.6,0.7-1.2c-0.2-1.3-0.5-2.6-1.3-3.7
		c-1-1.4-2.3-1.8-3.8-1.5c-1.7,0.3-3.3,0.8-4.9,1.1c-1.7,0.4-3.4,0.8-5,1.2c0.4,0.3,0.8,0.7,1.2,1c-0.1-1.7-0.2-3.4-0.3-5.2
		c-0.3,0.3-0.6,0.6-0.9,1c4.8,0.6,9.7,0,14.1-1.8c0.5-0.2,0.8-0.6,0.7-1.2c-1.4-7.6-2.7-15.3-3.7-22.9c-0.1-0.5-0.4-1-0.9-1
		c-0.5,0-1,0.4-0.9,1c1,7.9,2.3,15.7,3.7,23.5c0.2-0.4,0.4-0.8,0.7-1.2c-4.3,1.7-9,2.3-13.6,1.7c-0.5-0.1-1,0.5-0.9,1
		c0.1,1.7,0.2,3.4,0.3,5.2c0,0.7,0.6,1.2,1.2,1c3-0.7,6-1.4,9-2.1c0.6-0.1,1.2-0.3,1.8-0.2c0.4,0.1,0.8,0.3,1,0.7c0.6,0.8,0.8,2,1,3
		c0.2-0.4,0.4-0.8,0.7-1.2c-3.6,1.5-7.4,2.2-11.2,2c-0.5,0-1,0.4-0.9,1c0.1,2.1,0.5,4.2,1.2,6.2c0.1,0.4,0.5,0.8,0.9,0.8
		c3.2-0.3,6.3-0.9,9.3-1.8c-0.4-0.2-0.8-0.5-1.2-0.7c0.7,3.2,1.7,6.4,3,9.4c0.2-0.5,0.4-1,0.6-1.5c-5.7,0.9-11.5,1.4-17.3,1.4
		c0.3,0.3,0.6,0.5,0.9,0.8c-2-8.2-4.4-16.3-7.2-24.2c-0.3-1-0.7-1.9-1.1-2.9c-0.2-0.5-0.4-1-0.6-1.5c-0.1-0.3-0.3-0.7-0.3-1
		c0,0,0-0.1,0-0.1c-0.1-0.2,0.2,0,0,0c0.1,0,0.2-0.1,0.2-0.1c0.5-0.1,1-0.2,1.4-0.2c1-0.1,1.9-0.3,2.9-0.4c1.9-0.3,3.9-0.6,5.8-0.9
		c1-0.2,2-0.3,2.9-0.5c0.9-0.1,1.7-0.6,1.9-1.6c0.2-1-0.3-2.1-0.5-3.1c-0.3-1.1-0.6-2.3-0.9-3.4c-0.6-2.3-1.2-4.7-1.8-7
		C133.5,108.9,131.7,109.4,132,110.7"/>
	<path style="clip-path:url(#SVGID_00000071533667204533900870000006906225797859588542_);fill:#FFFFFF;" d="M89.7,114.6
		c0,2,0,4,0,6c0,1,0,1.9,0,2.9c0,0.9,0.1,1.9,0,2.8c0,0.1,0,0.3-0.1,0.4c0,0,0.1,0-0.1,0c-0.4,0-0.8-0.1-1.2-0.1c-1-0.1-2-0.2-3-0.3
		c-1.9-0.2-3.9-0.4-5.8-0.5c-1-0.1-1.9-0.2-2.9-0.3c-0.9-0.1-1.8-0.1-2.4,0.7c-0.5,0.6-0.4,1.4-0.3,2.2c0.1,0.9,0.2,1.9,0.3,2.9
		c0.4,3.9,0.7,7.8,0.9,11.7c0.2,4.4,0.3,8.8,0.2,13.1c0,0.4,0.3,0.8,0.7,0.9c5.8,1.4,11.7,2.3,17.6,2.8c0.7,0.1,1-0.6,0.9-1.2
		c-0.4-2.9-0.5-5.8-0.4-8.6c0-0.5-0.4-1-0.9-0.9c-3,0.1-6,0-8.9-0.5c0.2,0.3,0.5,0.6,0.7,0.9c-0.1-1.8,0-3.6,0.4-5.3
		c-0.4,0.2-0.8,0.4-1.2,0.7c3.9,1.1,7.9,1.4,11.9,0.8c0.5-0.1,0.9-0.4,0.9-0.9c0.1-1.2,0.1-2.4-0.3-3.6c-0.6-1.4-1.8-2.1-3.3-2.2
		c-1.7-0.1-3.4-0.1-5.1-0.1c-1.7,0-3.4-0.1-5.2-0.1c0.3,0.4,0.6,0.8,0.9,1.2c0.3-1.6,0.7-3.1,1-4.7c-0.4,0.2-0.8,0.4-1.2,0.7
		c4.5,1.6,9.4,2.2,14.1,1.7c0.5-0.1,0.9-0.4,0.9-0.9c0.5-7.2,1.2-14.3,2.2-21.4c0.1-0.5-0.1-1-0.7-1.2c-0.4-0.1-1.1,0.1-1.2,0.7
		c-1,7.3-1.7,14.6-2.3,21.9c0.3-0.3,0.6-0.6,0.9-0.9c-4.6,0.5-9.3-0.1-13.6-1.6c-0.5-0.2-1.1,0.2-1.2,0.7c-0.3,1.6-0.7,3.1-1,4.7
		c-0.1,0.6,0.3,1.2,0.9,1.2c3.1,0.1,6.1,0.1,9.2,0.2c0.6,0,1.2,0,1.8,0.2c0.4,0.2,0.7,0.5,0.8,0.8c0.4,0.9,0.3,2,0.2,3
		c0.3-0.3,0.6-0.6,0.9-0.9c-3.8,0.5-7.7,0.2-11.4-0.8c-0.5-0.1-1,0.2-1.2,0.7c-0.4,1.9-0.6,3.9-0.4,5.8c0,0.4,0.3,0.8,0.7,0.9
		c3.1,0.4,6.3,0.6,9.4,0.5c-0.3-0.3-0.6-0.6-0.9-0.9c-0.1,3.1,0.1,6.1,0.5,9.1c0.3-0.4,0.6-0.8,0.9-1.2c-5.8-0.5-11.5-1.4-17.1-2.8
		c0.2,0.3,0.5,0.6,0.7,0.9c0.1-7.8-0.2-15.6-0.9-23.4c-0.1-1-0.2-1.9-0.3-2.9c-0.1-0.5-0.1-1-0.2-1.5c0-0.3-0.1-0.7-0.1-0.9
		c0,0,0-0.1,0-0.1c0-0.2,0.2,0,0,0c0.1,0,0.2,0,0.3,0c0.5,0,1,0.1,1.5,0.1c1,0.1,1.9,0.2,2.9,0.3c1.9,0.2,3.9,0.4,5.8,0.5
		c1,0.1,2,0.2,3,0.3c0.9,0.1,1.8-0.1,2.2-1c0.4-0.9,0.3-2,0.3-2.9c0-1.1,0-2.2,0-3.3c0-2.2,0-4.5,0-6.7
		C91.6,113.4,89.7,113.4,89.7,114.6"/>
	<path style="clip-path:url(#SVGID_00000071533667204533900870000006906225797859588542_);fill:#FFFFFF;" d="M40.4,76.2
		c-0.1,0.9-0.6,1.8-0.4,2.8c1-0.4,1.5-0.7,2.7-0.9c1.2-0.2,2.2-0.8,3.4-1.1c0.5-0.1,0.9-0.1,1.4-0.2c0.5-0.1,1.1-0.5,1.7-0.6
		c1.3-0.2,2.6,0,3.9-0.3c-0.5-0.8-0.8-1.5-1-2.5c-0.1-0.5-0.4-0.9-0.5-1.4c-0.1-0.7,0-1.3-0.3-1.9c-0.7-1.1-1.8-2-3.1-2.8
		c-0.7-0.4-1.2-1-2-1.3c-0.9-0.3-1.5-0.8-2.5-1c-2.5-0.6-5.6-1-8.2-0.1c-0.7,0.2-1.5,0.3-2.1,0.6c-0.4,0.2-1,0.7-1.4,0.9
		c-1.2,0.7-2.2,1.2-3.3,2c-1.9,1.3-2.8,3-3.9,4.7c-0.5,0.8-1,1.8-1.4,2.7c0,0-0.2,0.6-0.2,0.6c-0.1,0.1-0.5,0.3-0.5,0.5
		c-0.1,0.5-0.1,1-0.2,1.4c-0.7,1.9-1,4-0.1,5.9c0.4,0.8,0.8,1.7,1.8,2c1.1,0.4,2.3,0.2,3.6,0.2c2.6-0.2,4.7-1,7-1.4
		c0.6-0.1,1.1-0.1,1.6-0.3c0.7-0.2,1.2-0.4,1.9-0.7c0.5-0.2,1-0.4,1.4-0.6c0.9-0.3,1.7-0.3,2.7-0.5c1.1-0.3,2.1-0.8,3.2-1.1
		c1.5-0.3,3.1-0.6,4.7-0.9c1.1-0.2,2.1-0.7,3.2-0.9c1.4-0.2,2.6-0.2,3.8,0.1c0.9,0.2,1.9,0.3,2.5,1c0.3,0.3,0.3,0.8,0.3,1.2
		c-0.1,0.7-0.1,0.6-0.7,1c-2,1.3-4.3,1.3-6.8,1.9c-0.9,0.2-1.8,0.4-2.6,0.5c-0.7,0.1-1.3,0.3-2,0.4c-0.6,0.1-1.2,0.1-1.8,0.2
		c-1,0.2-1.7,0.5-2.7,0.6c-3.2,0.3-6.1,1.2-9.2,1.6c-0.8,0.1-1.1,0.4-1.8,0.6c-0.5,0.1-1.3,0.1-1.8,0.1c-0.4,0-1.9,0-2.2,0.2
		c-0.4,0.3,0,1.5,0,1.8c0,0.9-0.1,1.1,1,1.1c0.6,0,1.5,0,2.1-0.1c0.6-0.1,1-0.3,1.7-0.4c0.7,0,1.8,0,2.4-0.1
		c0.9-0.3,1.1-0.6,2.2-0.6c0.9-0.1,1.8-0.1,2.7-0.2c1.6-0.1,3.2-0.2,4.8-0.3c2.8-0.2,5.4-0.6,8.2-0.8c2.5-0.2,5.1-0.4,7.6-0.5
		c1.3-0.1,2.7-0.2,4-0.3c1-0.1,0.9-0.1,0.9-0.8c0-0.7-0.1-1.4-0.1-2.1c-0.1-0.9-0.1-1.9-0.2-2.8c-0.1-0.9-0.3-2-0.8-2.8
		c-0.8-1.4-2.7-2.8-4.7-3c-0.9-0.1-1.8-0.1-2.6-0.3c-0.7-0.1-1.7-0.3-2.4-0.3c-0.7,0-2.3,0-3,0.2c-0.9,0.2-1.6,0.9-2.6,1.1
		c-2,0.5-3.8,1.4-5.8,1.9c-2,0.4-3.9,1.2-5.9,1.5c-1.9,0.3-4.4,0.8-6.4,0.6c-1.1-0.1-1.3-0.7-2-1.2c-0.6-0.5-1.2-0.8-1.4-1.5
		c-0.2-0.7-0.1-1.6-0.2-2.3c0-0.8,0.5-1.3,1-2c0.3-0.4,0.3-0.8,0.6-1.2c0.3-0.3,0.5-0.6,0.8-1c0.4-0.7,1.7-1.5,1.7-2.2
		c0.8-0.1,1.4-1.1,2.2-1.4c0.7-0.3,2.4-0.7,3.2-0.4c0.2,0.1,0.6,0.5,0.8,0.7c0.1,0.1,0.3,0.3,0.5,0.4c0.2,0.1,0.7,0.1,0.8,0.2
		c0.8,0.7,0.5,2.3,0.5,2.4C40.2,73.6,40.5,75,40.4,76.2"/>
	
		<path style="clip-path:url(#SVGID_00000071533667204533900870000006906225797859588542_);fill:none;stroke:#FFFFFF;stroke-width:1.4;" d="
		M40.4,76.2c-0.1,0.9-0.6,1.8-0.4,2.8c1-0.4,1.5-0.7,2.7-0.9c1.2-0.2,2.2-0.8,3.4-1.1c0.5-0.1,0.9-0.1,1.4-0.2
		c0.5-0.1,1.1-0.5,1.7-0.6c1.3-0.2,2.6,0,3.9-0.3c-0.5-0.8-0.8-1.5-1-2.5c-0.1-0.5-0.4-0.9-0.5-1.4c-0.1-0.7,0-1.3-0.3-1.9
		c-0.7-1.1-1.8-2-3.1-2.8c-0.7-0.4-1.2-1-2-1.3c-0.9-0.3-1.5-0.8-2.5-1c-2.5-0.6-5.6-1-8.2-0.1c-0.7,0.2-1.5,0.3-2.1,0.6
		c-0.4,0.2-1,0.7-1.4,0.9c-1.2,0.7-2.2,1.2-3.3,2c-1.9,1.3-2.8,3-3.9,4.7c-0.5,0.8-1,1.8-1.4,2.7c0,0-0.2,0.6-0.2,0.6
		c-0.1,0.1-0.5,0.3-0.5,0.5c-0.1,0.5-0.1,1-0.2,1.4c-0.7,1.9-1,4-0.1,5.9c0.4,0.8,0.8,1.7,1.8,2c1.1,0.4,2.3,0.2,3.6,0.2
		c2.6-0.2,4.7-1,7-1.4c0.6-0.1,1.1-0.1,1.6-0.3c0.7-0.2,1.2-0.4,1.9-0.7c0.5-0.2,1-0.4,1.4-0.6c0.9-0.3,1.7-0.3,2.7-0.5
		c1.1-0.3,2.1-0.8,3.2-1.1c1.5-0.3,3.1-0.6,4.7-0.9c1.1-0.2,2.1-0.7,3.2-0.9c1.4-0.2,2.6-0.2,3.8,0.1c0.9,0.2,1.9,0.3,2.5,1
		c0.3,0.3,0.3,0.8,0.3,1.2c-0.1,0.7-0.1,0.6-0.7,1c-2,1.3-4.3,1.3-6.8,1.9c-0.9,0.2-1.8,0.4-2.6,0.5c-0.7,0.1-1.3,0.3-2,0.4
		c-0.6,0.1-1.2,0.1-1.8,0.2c-1,0.2-1.7,0.5-2.7,0.6c-3.2,0.3-6.1,1.2-9.2,1.6c-0.8,0.1-1.1,0.4-1.8,0.6c-0.5,0.1-1.3,0.1-1.8,0.1
		c-0.4,0-1.9,0-2.2,0.2c-0.4,0.3,0,1.5,0,1.8c0,0.9-0.1,1.1,1,1.1c0.6,0,1.5,0,2.1-0.1c0.6-0.1,1-0.3,1.7-0.4c0.7,0,1.8,0,2.4-0.1
		c0.9-0.3,1.1-0.6,2.2-0.6c0.9-0.1,1.8-0.1,2.7-0.2c1.6-0.1,3.2-0.2,4.8-0.3c2.8-0.2,5.4-0.6,8.2-0.8c2.5-0.2,5.1-0.4,7.6-0.5
		c1.3-0.1,2.7-0.2,4-0.3c1-0.1,0.9-0.1,0.9-0.8c0-0.7-0.1-1.4-0.1-2.1c-0.1-0.9-0.1-1.9-0.2-2.8c-0.1-0.9-0.3-2-0.8-2.8
		c-0.8-1.4-2.7-2.8-4.7-3c-0.9-0.1-1.8-0.1-2.6-0.3c-0.7-0.1-1.7-0.3-2.4-0.3c-0.7,0-2.3,0-3,0.2c-0.9,0.2-1.6,0.9-2.6,1.1
		c-2,0.5-3.8,1.4-5.8,1.9c-2,0.4-3.9,1.2-5.9,1.5c-1.9,0.3-4.4,0.8-6.4,0.6c-1.1-0.1-1.3-0.7-2-1.2c-0.6-0.5-1.2-0.8-1.4-1.5
		c-0.2-0.7-0.1-1.6-0.2-2.3c0-0.8,0.5-1.3,1-2c0.3-0.4,0.3-0.8,0.6-1.2c0.3-0.3,0.5-0.6,0.8-1c0.4-0.7,1.7-1.5,1.7-2.2
		c0.8-0.1,1.4-1.1,2.2-1.4c0.7-0.3,2.4-0.7,3.2-0.4c0.2,0.1,0.6,0.5,0.8,0.7c0.1,0.1,0.3,0.3,0.5,0.4c0.2,0.1,0.7,0.1,0.8,0.2
		c0.8,0.7,0.5,2.3,0.5,2.4C40.2,73.6,40.5,75,40.4,76.2z"/>
	<path style="clip-path:url(#SVGID_00000071533667204533900870000006906225797859588542_);fill:#FFFFFF;" d="M64.1,81.2
		c1.1,0.3,1.8,3,2.9,2.8c0.4-0.1,0.4-0.6,0.6-0.8c0.4-0.2,0.8-0.3,1.2-0.5c0.8-0.4,1.7-0.7,2.6-1c1.6-0.4,3.4-1.1,5-1.1
		c1.5,0.1,3.1,1.8,3.7,3.1c1.4,3.1,2.2,7.4,2.1,10.7c0,0.7,0,1.5,0,2.2c0,0.6,0.4,1.2,0.4,1.7c0,0.4-0.4,0.6-0.5,1.2
		c-0.1,1.7,1.2,3.4,0.7,5.2c0.7-0.9,2.8-1.1,3.9-1.4c0.7-0.2,1.3-0.4,2-0.5c1.3-0.3,1.9-0.3,1.3-1.7c-1.1-2.6-1.8-5.6-2.5-8.4
		c-0.4-1.4-1.1-3-1.2-4.4c-0.1-1.2,0.1-2.6,0.1-3.9c0,11,0.1,7.7,0-3.7c0-1.4-0.5-2.9,0.5-4c0.9-1.1,2.8-1.2,4.1-1.6
		c1.6-0.4,3.3-0.7,4.7-1.6c2.2-1.4,5.7-2.4,8.3-1.4c1,0.4,3.4,1.1,3.5-0.6c0-0.6-0.6-1.1-0.8-1.6c-0.5-1,0-1.4-1.1-1.5
		c-1.2-0.1-3.2,0.9-4.4,1.2c-1.6,0.4-3.2,0.8-4.7,1.3c-2.8,0.8-5.6,1.5-8.5,2.3c-3.1,0.8-6.3,0.9-9.1,2.4c-1.3,0.7-2.5,1.3-3.9,1.8
		c-1.2,0.5-2.1,1.1-3.2,1.6c-2.5,1.1-5.9,1.4-8.2,3"/>
	
		<path style="clip-path:url(#SVGID_00000071533667204533900870000006906225797859588542_);fill:none;stroke:#FFFFFF;stroke-width:1.4;" d="
		M64.1,81.2c1.1,0.3,1.8,3,2.9,2.8c0.4-0.1,0.4-0.6,0.6-0.8c0.4-0.2,0.8-0.3,1.2-0.5c0.8-0.4,1.7-0.7,2.6-1c1.6-0.4,3.4-1.1,5-1.1
		c1.5,0.1,3.1,1.8,3.7,3.1c1.4,3.1,2.2,7.4,2.1,10.7c0,0.7,0,1.5,0,2.2c0,0.6,0.4,1.2,0.4,1.7c0,0.4-0.4,0.6-0.5,1.2
		c-0.1,1.7,1.2,3.4,0.7,5.2c0.7-0.9,2.8-1.1,3.9-1.4c0.7-0.2,1.3-0.4,2-0.5c1.3-0.3,1.9-0.3,1.3-1.7c-1.1-2.6-1.8-5.6-2.5-8.4
		c-0.4-1.4-1.1-3-1.2-4.4c-0.1-1.2,0.1-2.6,0.1-3.9c0,11,0.1,7.7,0-3.7c0-1.4-0.5-2.9,0.5-4c0.9-1.1,2.8-1.2,4.1-1.6
		c1.6-0.4,3.3-0.7,4.7-1.6c2.2-1.4,5.7-2.4,8.3-1.4c1,0.4,3.4,1.1,3.5-0.6c0-0.6-0.6-1.1-0.8-1.6c-0.5-1,0-1.4-1.1-1.5
		c-1.2-0.1-3.2,0.9-4.4,1.2c-1.6,0.4-3.2,0.8-4.7,1.3c-2.8,0.8-5.6,1.5-8.5,2.3c-3.1,0.8-6.3,0.9-9.1,2.4c-1.3,0.7-2.5,1.3-3.9,1.8
		c-1.2,0.5-2.1,1.1-3.2,1.6c-2.5,1.1-5.9,1.4-8.2,3"/>
	<path style="clip-path:url(#SVGID_00000071533667204533900870000006906225797859588542_);fill:#FFFFFF;" d="M95.5,76.5
		c1.1,0.3,1.8,3,2.9,2.8c0.4-0.1,0.4-0.6,0.6-0.8c0.4-0.2,0.8-0.3,1.2-0.5c0.8-0.4,1.7-0.7,2.6-1c1.6-0.4,3.4-1.1,5-1.1
		c1.5,0.1,3.1,1.8,3.7,3.1c1.4,3.1,2.2,7.4,2.1,10.7c0,0.7,0,1.5,0,2.2c0,0.6,0.4,1.2,0.4,1.7c0,0.4-0.4,0.6-0.5,1.2
		c-0.1,1.7,1.2,3.4,0.7,5.2c0.7-0.9,2.8-1.1,3.9-1.4c0.7-0.2,1.3-0.4,2-0.5c1.3-0.3,1.9-0.3,1.3-1.7c-1.1-2.6-1.8-5.6-2.5-8.4
		c-0.4-1.4-1.1-3-1.2-4.4c-0.1-1.2,0.1-2.6,0.1-3.9c0,11,0.1,7.7,0-3.7c0-1.4-0.5-2.9,0.5-4c0.9-1.1,2.8-1.2,4.1-1.6
		c1.6-0.4,3.3-0.7,4.7-1.6c2.2-1.4,5.7-2.4,8.3-1.4c1,0.4,3.4,1.1,3.5-0.6c0-0.6-0.6-1.1-0.8-1.6c-0.5-1,0-1.4-1.1-1.5
		c-1.2-0.1-3.2,0.9-4.4,1.2c-1.6,0.4-3.2,0.8-4.7,1.3c-2.8,0.8-5.6,1.5-8.5,2.3c-3.1,0.8-6.3,0.9-9.1,2.4c-1.3,0.7-2.6,1.3-3.9,1.8
		c-1.2,0.5-2.1,1.1-3.2,1.6c-2.5,1.1-5.9,1.4-8.2,3"/>
	
		<path style="clip-path:url(#SVGID_00000071533667204533900870000006906225797859588542_);fill:none;stroke:#FFFFFF;stroke-width:1.4;" d="
		M95.5,76.5c1.1,0.3,1.8,3,2.9,2.8c0.4-0.1,0.4-0.6,0.6-0.8c0.4-0.2,0.8-0.3,1.2-0.5c0.8-0.4,1.7-0.7,2.6-1c1.6-0.4,3.4-1.1,5-1.1
		c1.5,0.1,3.1,1.8,3.7,3.1c1.4,3.1,2.2,7.4,2.1,10.7c0,0.7,0,1.5,0,2.2c0,0.6,0.4,1.2,0.4,1.7c0,0.4-0.4,0.6-0.5,1.2
		c-0.1,1.7,1.2,3.4,0.7,5.2c0.7-0.9,2.8-1.1,3.9-1.4c0.7-0.2,1.3-0.4,2-0.5c1.3-0.3,1.9-0.3,1.3-1.7c-1.1-2.6-1.8-5.6-2.5-8.4
		c-0.4-1.4-1.1-3-1.2-4.4c-0.1-1.2,0.1-2.6,0.1-3.9c0,11,0.1,7.7,0-3.7c0-1.4-0.5-2.9,0.5-4c0.9-1.1,2.8-1.2,4.1-1.6
		c1.6-0.4,3.3-0.7,4.7-1.6c2.2-1.4,5.7-2.4,8.3-1.4c1,0.4,3.4,1.1,3.5-0.6c0-0.6-0.6-1.1-0.8-1.6c-0.5-1,0-1.4-1.1-1.5
		c-1.2-0.1-3.2,0.9-4.4,1.2c-1.6,0.4-3.2,0.8-4.7,1.3c-2.8,0.8-5.6,1.5-8.5,2.3c-3.1,0.8-6.3,0.9-9.1,2.4c-1.3,0.7-2.6,1.3-3.9,1.8
		c-1.2,0.5-2.1,1.1-3.2,1.6c-2.5,1.1-5.9,1.4-8.2,3"/>
	<path style="clip-path:url(#SVGID_00000071533667204533900870000006906225797859588542_);fill:#FFFFFF;" d="M136,96.4
		c-1.1-0.3-1.8-3-2.9-2.8c-0.4,0.1-0.4,0.6-0.6,0.8c-0.4,0.2-0.8,0.3-1.2,0.5c-0.8,0.4-1.7,0.7-2.6,1c-1.6,0.4-3.4,1.1-5,1.1
		c-1.5-0.1-3.1-1.8-3.7-3.1c-1.4-3.1-2.2-7.4-2.1-10.7c0-0.7,0-1.5,0-2.2c0-0.6-0.4-1.2-0.4-1.7c0-0.4,0.4-0.6,0.5-1.2
		c0.1-1.7-1.2-3.4-0.7-5.2c-0.7,0.9-2.8,1.1-3.9,1.4c-0.7,0.2-1.3,0.4-2,0.5c-1.3,0.3-1.9,0.3-1.3,1.7c1.1,2.6,1.8,5.6,2.5,8.4
		c0.4,1.4,1.1,3,1.2,4.4c0.1,1.2-0.1,2.6-0.1,3.9c0-11-0.1-7.7,0,3.7c0,1.4,0.5,2.9-0.5,4c-0.9,1.1-2.8,1.2-4.1,1.6
		c-1.6,0.4-3.3,0.7-4.7,1.6c-2.2,1.4-5.7,2.4-8.3,1.4c-1-0.4-3.4-1.1-3.5,0.6c0,0.6,0.6,1.1,0.8,1.6c0.5,1,0,1.4,1.1,1.5
		c1.2,0.1,3.2-0.9,4.4-1.2c1.6-0.4,3.2-0.8,4.7-1.3c2.8-0.8,5.6-1.5,8.5-2.3c3.1-0.8,6.3-0.9,9.1-2.4c1.3-0.7,2.6-1.3,3.9-1.8
		c1.2-0.5,2.1-1.1,3.2-1.6c2.5-1.1,5.9-1.4,8.2-3"/>
	
		<path style="clip-path:url(#SVGID_00000071533667204533900870000006906225797859588542_);fill:none;stroke:#FFFFFF;stroke-width:1.4;" d="
		M136,96.4c-1.1-0.3-1.8-3-2.9-2.8c-0.4,0.1-0.4,0.6-0.6,0.8c-0.4,0.2-0.8,0.3-1.2,0.5c-0.8,0.4-1.7,0.7-2.6,1
		c-1.6,0.4-3.4,1.1-5,1.1c-1.5-0.1-3.1-1.8-3.7-3.1c-1.4-3.1-2.2-7.4-2.1-10.7c0-0.7,0-1.5,0-2.2c0-0.6-0.4-1.2-0.4-1.7
		c0-0.4,0.4-0.6,0.5-1.2c0.1-1.7-1.2-3.4-0.7-5.2c-0.7,0.9-2.8,1.1-3.9,1.4c-0.7,0.2-1.3,0.4-2,0.5c-1.3,0.3-1.9,0.3-1.3,1.7
		c1.1,2.6,1.8,5.6,2.5,8.4c0.4,1.4,1.1,3,1.2,4.4c0.1,1.2-0.1,2.6-0.1,3.9c0-11-0.1-7.7,0,3.7c0,1.4,0.5,2.9-0.5,4
		c-0.9,1.1-2.8,1.2-4.1,1.6c-1.6,0.4-3.3,0.7-4.7,1.6c-2.2,1.4-5.7,2.4-8.3,1.4c-1-0.4-3.4-1.1-3.5,0.6c0,0.6,0.6,1.1,0.8,1.6
		c0.5,1,0,1.4,1.1,1.5c1.2,0.1,3.2-0.9,4.4-1.2c1.6-0.4,3.2-0.8,4.7-1.3c2.8-0.8,5.6-1.5,8.5-2.3c3.1-0.8,6.3-0.9,9.1-2.4
		c1.3-0.7,2.6-1.3,3.9-1.8c1.2-0.5,2.1-1.1,3.2-1.6c2.5-1.1,5.9-1.4,8.2-3"/>
	<path style="clip-path:url(#SVGID_00000071533667204533900870000006906225797859588542_);fill:#FFFFFF;" d="M133,96.5
		c-0.1-3.4-1.2-7.7-2.6-10.6c-0.3-0.6-0.7-1.3-1-2c-0.2-0.5-0.1-1.2-0.4-1.8c-0.2-0.4-0.7-0.4-0.9-0.9c-0.8-1.6-0.4-3.6-1.5-5
		c1,0.5,3-0.2,4.1-0.4c0.7-0.1,1.4-0.2,2.1-0.4c1.3-0.3,1.8-0.5,1.9,1c0.1,2.8,0.8,5.8,1.3,8.7c0.3,1.4,0.3,3.2,0.8,4.5
		c0.4,1.1,1.2,2.3,1.8,3.5c-4.7-10-3.2-7,1.6,3.3c0.6,1.2,0.8,2.9,2.2,3.5c1.3,0.6,3.1-0.1,4.4-0.3c1.6-0.3,3.3-0.7,4.9-0.5
		c2.6,0.3,6.2-0.3,8.1-2.2c0.7-0.7,2.6-2.4,3.4-0.9c0.3,0.6-0.1,1.2-0.1,1.8c0,1.1,0.6,1.3-0.4,1.9c-1.1,0.6-3.3,0.6-4.5,0.8
		c-1.6,0.3-3.2,0.6-4.8,0.9c-2.9,0.5-5.7,1-8.6,1.5c-3.1,0.6-6.1,1.9-9.3,1.7"/>
	
		<path style="clip-path:url(#SVGID_00000071533667204533900870000006906225797859588542_);fill:none;stroke:#FFFFFF;stroke-width:1.4;" d="
		M133,96.5c-0.1-3.4-1.2-7.7-2.6-10.6c-0.3-0.6-0.7-1.3-1-2c-0.2-0.5-0.1-1.2-0.4-1.8c-0.2-0.4-0.7-0.4-0.9-0.9
		c-0.8-1.6-0.4-3.6-1.5-5c1,0.5,3-0.2,4.1-0.4c0.7-0.1,1.4-0.2,2.1-0.4c1.3-0.3,1.8-0.5,1.9,1c0.1,2.8,0.8,5.8,1.3,8.7
		c0.3,1.4,0.3,3.2,0.8,4.5c0.4,1.1,1.2,2.3,1.8,3.5c-4.7-10-3.2-7,1.6,3.3c0.6,1.2,0.8,2.9,2.2,3.5c1.3,0.6,3.1-0.1,4.4-0.3
		c1.6-0.3,3.3-0.7,4.9-0.5c2.6,0.3,6.2-0.3,8.1-2.2c0.7-0.7,2.6-2.4,3.4-0.9c0.3,0.6-0.1,1.2-0.1,1.8c0,1.1,0.6,1.3-0.4,1.9
		c-1.1,0.6-3.3,0.6-4.5,0.8c-1.6,0.3-3.2,0.6-4.8,0.9c-2.9,0.5-5.7,1-8.6,1.5c-3.1,0.6-6.1,1.9-9.3,1.7"/>
	<path style="clip-path:url(#SVGID_00000071533667204533900870000006906225797859588542_);fill:#FFFFFF;" d="M151.6,88.3
		c-0.1-3.4-1.2-7.7-2.6-10.6c-0.3-0.6-0.7-1.3-1-2c-0.2-0.5-0.1-1.2-0.4-1.8c-0.2-0.4-0.7-0.4-0.9-0.9c-0.8-1.6-0.4-3.6-1.5-5
		c1,0.5,3-0.2,4.1-0.4c0.7-0.1,1.4-0.2,2.1-0.4c1.3-0.3,1.8-0.5,1.9,1c0.1,2.8,0.8,5.8,1.3,8.7c0.3,1.4,0.3,3.2,0.8,4.5
		c0.4,1.1,1.2,2.3,1.8,3.5c-4.7-10-3.2-7,1.6,3.3c0.6,1.2,0.8,2.9,2.2,3.5c1.3,0.6,3.1-0.1,4.4-0.3c1.6-0.3,3.3-0.7,4.9-0.5
		c2.6,0.3,6.2-0.3,8.1-2.2c0.7-0.7,2.6-2.4,3.4-0.9c0.3,0.6-0.1,1.2-0.1,1.8c0,1.1,0.6,1.3-0.4,1.9c-1.1,0.6-3.3,0.6-4.5,0.8
		c-1.6,0.3-3.2,0.6-4.8,0.9c-2.9,0.5-5.7,1-8.6,1.5c-3.1,0.6-6.1,1.9-9.3,1.7"/>
	
		<path style="clip-path:url(#SVGID_00000071533667204533900870000006906225797859588542_);fill:none;stroke:#FFFFFF;stroke-width:1.4;" d="
		M151.6,88.3c-0.1-3.4-1.2-7.7-2.6-10.6c-0.3-0.6-0.7-1.3-1-2c-0.2-0.5-0.1-1.2-0.4-1.8c-0.2-0.4-0.7-0.4-0.9-0.9
		c-0.8-1.6-0.4-3.6-1.5-5c1,0.5,3-0.2,4.1-0.4c0.7-0.1,1.4-0.2,2.1-0.4c1.3-0.3,1.8-0.5,1.9,1c0.1,2.8,0.8,5.8,1.3,8.7
		c0.3,1.4,0.3,3.2,0.8,4.5c0.4,1.1,1.2,2.3,1.8,3.5c-4.7-10-3.2-7,1.6,3.3c0.6,1.2,0.8,2.9,2.2,3.5c1.3,0.6,3.1-0.1,4.4-0.3
		c1.6-0.3,3.3-0.7,4.9-0.5c2.6,0.3,6.2-0.3,8.1-2.2c0.7-0.7,2.6-2.4,3.4-0.9c0.3,0.6-0.1,1.2-0.1,1.8c0,1.1,0.6,1.3-0.4,1.9
		c-1.1,0.6-3.3,0.6-4.5,0.8c-1.6,0.3-3.2,0.6-4.8,0.9c-2.9,0.5-5.7,1-8.6,1.5c-3.1,0.6-6.1,1.9-9.3,1.7"/>
</g>
</svg>
